<?xml version="1.0" encoding="iso-8859-1"?>
<!-- Generator: Adobe Illustrator 19.1.0, SVG Export Plug-In . SVG Version: 6.00 Build 0)  -->
<svg version="1.1" id="Capa_1" xmlns="http://www.w3.org/2000/svg" xmlns:xlink="http://www.w3.org/1999/xlink" x="0px" y="0px"
	 viewBox="0 0 434.772 434.772" style="enable-background:new 0 0 434.772 434.772;" xml:space="preserve">
<g>
	<g>
		<g>
			<path style="fill:#010002;" d="M252.217,200.875c5.784,5.295,8.754,12.008,8.754,19.941c0,9.526-3.644,17.45-10.806,23.527
				c-5.09,4.397-11.392,7.181-18.768,8.383v15.095h-16.199v-15.056c-7.328-1.299-13.883-4.357-19.56-9.145
				c-6.82-5.911-10.327-12.731-10.405-20.283l0.283-4.103h15.74l0.059,1.534c0.068,6.253,1.964,10.923,5.716,14.274
				c3.742,3.351,9.174,5.071,16.082,5.071c6.966,0,12.408-1.7,16.258-5.071c3.81-3.351,5.676-7.933,5.676-13.952
				c0-4.924-1.759-8.754-5.364-11.705c-3.781-2.98-10.308-5.628-19.482-7.826c-10.2-2.423-17.967-6.116-23.106-10.962
				c-5.237-4.924-7.865-11.265-7.865-18.808c0-8.588,3.371-15.73,10.024-21.172c4.524-3.703,9.878-6.155,15.955-7.269v-13.082
				h16.189v12.721c7.21,1.006,13.278,3.537,18.045,7.533c6.312,5.335,9.751,12.75,10.22,22.012l0.117,1.612h-15.857l-0.205-1.358
				c-0.752-5.755-2.657-10.112-5.735-12.858c-3.058-2.716-7.611-4.143-13.493-4.143c-6.145,0-11.021,1.436-14.362,4.26
				c-3.361,2.765-5.002,6.556-5.002,11.587c0,4.387,1.495,7.845,4.572,10.415c3.107,2.667,8.666,4.953,16.551,6.829
				C237.757,191.622,246.491,195.648,252.217,200.875z M385.931,0v337.08H279.886l-62.51,97.692l-62.49-97.692H48.841V0H385.931z
				 M317.853,213.156c0-42.217-27.581-98.874-65.743-119.216v0.361h-60.096l1.866-3.498l3.341-3.517h48.353l13.854-46.154h-72.602
				l10.112,45.011c-7.435-8.441-25.852-26.438-42.696-20.341l1.837,5.032c14.294-5.188,31.704,12.887,37.791,19.96
				c-10.239,3.722-23.566,6.399-31.352-0.655l-3.634,3.996c4.69,4.201,10.649,5.725,16.844,5.725c3.664,0,7.396-0.537,11.021-1.368
				c-34.254,23.282-58.416,75.24-58.416,114.663c0,52.339,42.442,94.771,94.771,94.771
				C275.44,307.926,317.853,265.494,317.853,213.156z"/>
		</g>
	</g>
</g>
<g>
</g>
<g>
</g>
<g>
</g>
<g>
</g>
<g>
</g>
<g>
</g>
<g>
</g>
<g>
</g>
<g>
</g>
<g>
</g>
<g>
</g>
<g>
</g>
<g>
</g>
<g>
</g>
<g>
</g>
</svg>
