<?xml version="1.0" encoding="iso-8859-1"?>
<!-- Generator: Adobe Illustrator 19.0.0, SVG Export Plug-In . SVG Version: 6.00 Build 0)  -->
<svg xmlns="http://www.w3.org/2000/svg" xmlns:xlink="http://www.w3.org/1999/xlink" version="1.1" id="Layer_1" x="0px" y="0px" viewBox="0 0 429.609 429.609" style="enable-background:new 0 0 429.609 429.609;" xml:space="preserve" width="512" height="512">
<g>
	<g>
		<path style="fill:#FFC843;" d="M386.525,123.52c-1.114-4.68-5.175-4.069-6.471-0.114c-8.601,26.231-33.267,45.178-62.375,45.178    h-50.2c-61.284,0-63.605-31.648-63.605-55.605c0-47.103-38.184-85.288-85.289-85.288c-47.101,0-85.287,38.185-85.287,85.288    c0,22.778,8.946,43.454,23.498,58.751l-0.025,0.007c6.273,6.273,15.044,24.314,20.653,45.148l0.004-0.001    c14.699,72.968,79.157,127.92,156.456,127.92c88.149,0,159.607-71.459,159.607-159.608    C393.491,168.928,391.053,142.532,386.525,123.52z"/>
		<path style="opacity:0.1;fill:#222222;" d="M81.971,234.256c20.699,64.143,80.883,110.548,151.913,110.548    c71.032,0,131.214-46.405,151.913-110.548H81.971z"/>
		<circle style="fill:#333E48;" cx="96.401" cy="89.31" r="8.86"/>
		<g>
			<path style="fill:#FF7F3F;" d="M63.422,107.216c-10.552,0-14.429-18.736-22.182-18.736c-13.137,0-9.261,18.736-31.871,18.736     c-5.176,0-9.369,4.194-9.369,9.368c0,5.174,4.193,9.368,9.369,9.368h63.422v-9.368C72.791,111.41,68.597,107.216,63.422,107.216z     "/>
			<path style="fill:#D66B35;" d="M9.369,125.951c-5.176,0-9.369,4.195-9.369,9.368c0,5.174,4.193,9.368,9.369,9.368     c0,0,24.361,0,30.021,0c5.658,0,33.401,3.322,33.401-18.736H9.369z"/>
		</g>
		<path style="opacity:0.2;fill:#222222;" d="M256.327,206.039c-27.588,0-50.844-14.116-55.624-18.732    c-5.447-5.286-13.319-8.286-22.073-8.286c-16.44,0-29.77,10.577-29.77,27.018c0,0.514,0.013,1.025,0.039,1.532    c0.822,47.828,39.821,86.352,87.845,86.352c48.537,0,87.885-39.347,87.885-87.883H256.327z"/>
		<path style="fill:#FEDD3D;" d="M264.588,198.286c-27.588,0-50.844-14.115-55.624-18.732c-5.446-5.286-13.319-8.285-22.073-8.285    c-16.44,0-29.77,10.577-29.77,27.018c0,0.514,0.014,1.025,0.039,1.532c0.822,47.827,39.822,86.351,87.845,86.351    c48.537,0,87.885-39.347,87.885-87.884H264.588z"/>
	</g>
	<g>
		<path style="fill:#229CD2;" d="M415.088,314.79c8.02,0,14.522,6.501,14.522,14.522c0,8.02-6.502,14.521-14.522,14.521h-39.272    c-8.021,0-14.521,6.503-14.521,14.522s6.5,14.521,14.521,14.521h17.65c8.018,0,14.521,6.501,14.521,14.522    c0,8.02-6.502,14.522-14.521,14.522H52.682c-8.022,0-14.522-6.502-14.522-14.522c0-8.02,6.5-14.522,14.522-14.522h33.393    c8.021,0,14.521-6.501,14.521-14.521s-6.5-14.522-14.521-14.522H67.203c-8.02,0-14.521-6.501-14.521-14.521    c0-8.021,6.502-14.522,14.521-14.522H415.088z"/>
		<path style="opacity:0.1;fill:#222222;" d="M393.465,372.876h-17.65c-8.021,0-14.521-6.501-14.521-14.521H100.596    c0,8.02-6.5,14.521-14.521,14.521H52.682c-8.022,0-14.522,6.501-14.522,14.522c0,8.02,6.5,14.522,14.522,14.522h340.783    c8.018,0,14.521-6.502,14.521-14.522C407.985,379.378,401.483,372.876,393.465,372.876z"/>
	</g>
</g>















</svg>
