<?xml version="1.0" encoding="iso-8859-1"?>
<!-- Generator: Adobe Illustrator 19.0.0, SVG Export Plug-In . SVG Version: 6.00 Build 0)  -->
<svg version="1.1" id="Layer_1" xmlns="http://www.w3.org/2000/svg" xmlns:xlink="http://www.w3.org/1999/xlink" x="0px" y="0px"
	 viewBox="0 0 512 512" style="enable-background:new 0 0 512 512;" xml:space="preserve">
<path style="fill:#D3C6A8;" d="M256,512c-36.863,0-66.746-12.458-66.746-27.826s29.883-27.826,66.746-27.826
	s66.746,12.458,66.746,27.826S292.863,512,256,512z"/>
<path style="fill:#B1A78F;" d="M256,456.348v35.302h-64.289c-1.589-2.38-2.458-4.885-2.458-7.476
	C189.254,468.806,219.137,456.348,256,456.348z"/>
<path style="fill:#57544C;" d="M267.125,397.609v82.911c0,6.147-4.981,11.13-11.125,11.13c-6.144,0-11.125-4.983-11.125-11.13
	v-82.911c0-6.147,4.981-11.13,11.125-11.13C262.144,386.479,267.125,391.462,267.125,397.609z"/>
<path style="fill:#B74941;" d="M442.435,186.536c0,40.734-12.89,79.436-37.278,111.92c-22.27,29.663-53.435,52.362-88.296,64.436
	c-2.926,10.328-8.405,19.681-16.063,27.345c-12.351,12.357-28.575,18.536-44.798,18.537c-16.223,0-32.445-6.178-44.794-18.534
	c-7.662-7.667-13.139-17.02-16.066-27.346c-34.862-12.074-66.028-34.774-88.298-64.436c-24.387-32.485-37.277-71.186-37.277-111.921
	C69.565,83.68,153.199,0,256,0S442.435,83.68,442.435,186.536z"/>
<path style="fill:#501919;" d="M406.18,172.522c0,82.986-67.238,150.261-150.18,150.261s-150.18-67.275-150.18-150.261
	S173.058,22.261,256,22.261S406.18,89.535,406.18,172.522z"/>
<path style="fill:#88857E;" d="M283.877,250.435h-0.132c-6.107,0-11.058-4.951-11.058-11.058V105.739h22.249v133.638
	C294.935,245.484,289.985,250.435,283.877,250.435z"/>
<path style="fill:#B1ACA3;" d="M339.433,94.609v100.174h-66.746V94.609H339.433z"/>
<path style="fill:#E5DFD7;" d="M339.433,166.957l-66.746-11.13v-33.391l66.746,11.13V166.957z"/>
<path style="fill:#88857E;" d="M250.438,94.609v55.652c0,12.295-9.961,22.261-22.249,22.261h-5.562v66.783
	c0,6.147-4.981,11.13-11.125,11.13c-6.144,0-11.125-4.983-11.125-11.13v-66.783h-5.562c-12.288,0-22.249-9.966-22.249-22.261V94.609
	h27.811h22.249H250.438z"/>
<path style="fill:#323030;" d="M183.691,94.609h11.125v50.087c0,3.073-2.49,5.565-5.562,5.565s-5.562-2.492-5.562-5.565V94.609
	H183.691z M205.94,144.696c0,3.073,2.49,5.565,5.562,5.565s5.562-2.492,5.562-5.565V94.609h-11.125v50.087H205.94z M228.189,94.609
	v50.087c0,3.073,2.49,5.565,5.562,5.565c3.072,0,5.562-2.492,5.562-5.565V94.609H228.189z"/>
<g>
</g>
<g>
</g>
<g>
</g>
<g>
</g>
<g>
</g>
<g>
</g>
<g>
</g>
<g>
</g>
<g>
</g>
<g>
</g>
<g>
</g>
<g>
</g>
<g>
</g>
<g>
</g>
<g>
</g>
</svg>
