<?xml version="1.0" encoding="iso-8859-1"?>
<!-- Generator: Adobe Illustrator 16.0.0, SVG Export Plug-In . SVG Version: 6.00 Build 0)  -->
<!DOCTYPE svg PUBLIC "-//W3C//DTD SVG 1.1//EN" "http://www.w3.org/Graphics/SVG/1.1/DTD/svg11.dtd">
<svg version="1.1" id="Capa_1" xmlns="http://www.w3.org/2000/svg" xmlns:xlink="http://www.w3.org/1999/xlink" x="0px" y="0px"
	 width="31.817px" height="31.818px" viewBox="0 0 31.817 31.818" style="enable-background:new 0 0 31.817 31.818;"
	 xml:space="preserve">
<g>
	<path d="M30.672,27.234V14.335L17.459,8.786V6.269h1.28v1.147h4.519V3.439h-2.293V2.293h-3.506v-0.01
		c0-0.629-0.521-1.137-1.146-1.137c-0.626,0-1.146,0.508-1.146,1.137v6.383l-14.02,5.669v12.899H0v3.438h13.482v-8.494h5.66v8.494
		h12.675v-3.438H30.672z M7.685,22.177h3.101v3.035H7.685V22.177z M2.765,22.177h3.167v3.035H2.765V22.177z M15.907,17.626
		c-1.228,0-2.226-0.996-2.226-2.228c0-1.229,0.997-2.225,2.226-2.225c1.229,0,2.228,0.995,2.228,2.225
		C18.135,16.628,17.139,17.626,15.907,17.626z M26.155,22.177h3.168v3.035h-3.168V22.177z M21.234,22.177h3.169v3.035h-3.169V22.177
		z"/>
</g>
<g>
</g>
<g>
</g>
<g>
</g>
<g>
</g>
<g>
</g>
<g>
</g>
<g>
</g>
<g>
</g>
<g>
</g>
<g>
</g>
<g>
</g>
<g>
</g>
<g>
</g>
<g>
</g>
<g>
</g>
</svg>
